<mxfile host="app.diagrams.net" modified="2023-06-27T01:07:15.115Z" agent="Mozilla/5.0 (Windows NT 10.0; Win64; x64) AppleWebKit/537.36 (KHTML, like Gecko) Chrome/114.0.0.0 Safari/537.36 Edg/114.0.1823.51" etag="LkhPZiIjE9UapV_aHkeN" version="21.5.0" type="github" pages="2">
  <diagram name="对内" id="qgnPjLoxKlH5nG3LD3r0">
    <mxGraphModel dx="1434" dy="1188" grid="0" gridSize="10" guides="1" tooltips="1" connect="1" arrows="1" fold="1" page="0" pageScale="1" pageWidth="1169" pageHeight="827" math="0" shadow="0">
      <root>
        <mxCell id="0" />
        <mxCell id="1" parent="0" />
        <mxCell id="6TijYfAXvn3jRtj2vqhA-1" value="" style="rounded=0;whiteSpace=wrap;html=1;verticalAlign=middle;opacity=30;glass=0;dashed=1;" parent="1" vertex="1">
          <mxGeometry x="255" y="149" width="869" height="153" as="geometry" />
        </mxCell>
        <mxCell id="6TijYfAXvn3jRtj2vqhA-2" value="感&lt;br&gt;知&lt;br&gt;设&lt;br&gt;备" style="rounded=1;whiteSpace=wrap;html=1;opacity=30;fillColor=#f8cecc;gradientColor=#ea6b66;strokeColor=#b85450;" parent="1" vertex="1">
          <mxGeometry x="197" y="458" width="43" height="122" as="geometry" />
        </mxCell>
        <mxCell id="6TijYfAXvn3jRtj2vqhA-3" value="" style="rounded=0;whiteSpace=wrap;html=1;glass=0;opacity=30;dashed=1;" parent="1" vertex="1">
          <mxGeometry x="255" y="458" width="872" height="119" as="geometry" />
        </mxCell>
        <mxCell id="6TijYfAXvn3jRtj2vqhA-4" value="驱&lt;br&gt;动&lt;br&gt;层" style="rounded=1;whiteSpace=wrap;html=1;opacity=30;fillColor=#f8cecc;gradientColor=#ea6b66;strokeColor=#b85450;" parent="1" vertex="1">
          <mxGeometry x="197" y="318.5" width="43" height="122" as="geometry" />
        </mxCell>
        <mxCell id="6TijYfAXvn3jRtj2vqhA-7" value="&lt;b&gt;IOT&lt;/b&gt;" style="rounded=0;whiteSpace=wrap;html=1;verticalAlign=bottom;opacity=30;glass=0;dashed=1;fillColor=#fff2cc;strokeColor=#d6b656;gradientColor=#ffd966;" parent="1" vertex="1">
          <mxGeometry x="255" y="320" width="869" height="119" as="geometry" />
        </mxCell>
        <mxCell id="6TijYfAXvn3jRtj2vqhA-8" value="平&lt;br&gt;台&lt;br&gt;层" style="rounded=1;whiteSpace=wrap;html=1;opacity=30;fillColor=#f8cecc;gradientColor=#ea6b66;strokeColor=#b85450;" parent="1" vertex="1">
          <mxGeometry x="197" y="147" width="43" height="154" as="geometry" />
        </mxCell>
        <mxCell id="6TijYfAXvn3jRtj2vqhA-9" value="设备接入" style="rounded=1;whiteSpace=wrap;html=1;opacity=30;fillColor=#fff2cc;gradientColor=#ffd966;strokeColor=#d6b656;" parent="1" vertex="1">
          <mxGeometry x="282" y="350" width="120" height="60" as="geometry" />
        </mxCell>
        <mxCell id="6TijYfAXvn3jRtj2vqhA-10" value="协议适配转换" style="rounded=1;whiteSpace=wrap;html=1;opacity=30;fillColor=#fff2cc;gradientColor=#ffd966;strokeColor=#d6b656;" parent="1" vertex="1">
          <mxGeometry x="839" y="350" width="120" height="60" as="geometry" />
        </mxCell>
        <mxCell id="6TijYfAXvn3jRtj2vqhA-11" value="视频接入" style="rounded=1;whiteSpace=wrap;html=1;opacity=30;fillColor=#fff2cc;gradientColor=#ffd966;strokeColor=#d6b656;" parent="1" vertex="1">
          <mxGeometry x="421" y="350" width="120" height="60" as="geometry" />
        </mxCell>
        <mxCell id="6TijYfAXvn3jRtj2vqhA-12" value="各类传感数据接入" style="rounded=1;whiteSpace=wrap;html=1;opacity=30;fillColor=#fff2cc;gradientColor=#ffd966;strokeColor=#d6b656;" parent="1" vertex="1">
          <mxGeometry x="700" y="350" width="120" height="60" as="geometry" />
        </mxCell>
        <mxCell id="6TijYfAXvn3jRtj2vqhA-13" value="图片接入" style="rounded=1;whiteSpace=wrap;html=1;opacity=30;fillColor=#fff2cc;gradientColor=#ffd966;strokeColor=#d6b656;" parent="1" vertex="1">
          <mxGeometry x="560" y="350" width="120" height="60" as="geometry" />
        </mxCell>
        <mxCell id="6TijYfAXvn3jRtj2vqhA-14" value="设备管理" style="rounded=1;whiteSpace=wrap;html=1;opacity=30;fillColor=#fff2cc;gradientColor=#ffd966;strokeColor=#d6b656;" parent="1" vertex="1">
          <mxGeometry x="978" y="349.5" width="120" height="60" as="geometry" />
        </mxCell>
        <mxCell id="6TijYfAXvn3jRtj2vqhA-15" value="非结构化数据存储平台" style="rounded=1;whiteSpace=wrap;html=1;opacity=30;fillColor=#fff2cc;gradientColor=#ffd966;strokeColor=#d6b656;" parent="1" vertex="1">
          <mxGeometry x="781" y="192" width="160" height="80" as="geometry" />
        </mxCell>
        <mxCell id="6TijYfAXvn3jRtj2vqhA-16" value="低空无人机&lt;br&gt;飞行管理平台" style="rounded=1;whiteSpace=wrap;html=1;opacity=30;fillColor=#d5e8d4;gradientColor=#97d077;strokeColor=#82b366;" parent="1" vertex="1">
          <mxGeometry x="267" y="190" width="160" height="80" as="geometry" />
        </mxCell>
        <mxCell id="6TijYfAXvn3jRtj2vqhA-17" value="应&lt;br&gt;用&lt;br&gt;层" style="rounded=1;whiteSpace=wrap;html=1;fillColor=#f8cecc;strokeColor=#b85450;opacity=30;gradientColor=#ea6b66;" parent="1" vertex="1">
          <mxGeometry x="197" y="-149" width="43" height="279" as="geometry" />
        </mxCell>
        <mxCell id="6TijYfAXvn3jRtj2vqhA-18" value="" style="rounded=0;whiteSpace=wrap;html=1;verticalAlign=middle;opacity=30;fillColor=default;strokeColor=default;glass=0;dashed=1;" parent="1" vertex="1">
          <mxGeometry x="255" y="-150" width="870" height="280" as="geometry" />
        </mxCell>
        <mxCell id="6TijYfAXvn3jRtj2vqhA-19" value="统一门户" style="rounded=1;whiteSpace=wrap;html=1;opacity=30;fillColor=#fff2cc;strokeColor=#d6b656;gradientColor=#ffd966;" parent="1" vertex="1">
          <mxGeometry x="280" y="-146" width="230" height="30" as="geometry" />
        </mxCell>
        <mxCell id="6TijYfAXvn3jRtj2vqhA-20" value="运维管理系统" style="rounded=1;whiteSpace=wrap;html=1;opacity=30;fillColor=#fff2cc;strokeColor=#d6b656;gradientColor=#ffd966;" parent="1" vertex="1">
          <mxGeometry x="281" y="92" width="394" height="30" as="geometry" />
        </mxCell>
        <mxCell id="6TijYfAXvn3jRtj2vqhA-25" value="低空AI中台" style="rounded=1;whiteSpace=wrap;html=1;opacity=30;fillColor=#fff2cc;gradientColor=#ffd966;strokeColor=#d6b656;" parent="1" vertex="1">
          <mxGeometry x="439" y="190" width="160" height="80" as="geometry" />
        </mxCell>
        <mxCell id="6TijYfAXvn3jRtj2vqhA-26" value="低空数据中台" style="rounded=1;whiteSpace=wrap;html=1;opacity=30;fillColor=#fff2cc;gradientColor=#ffd966;strokeColor=#d6b656;" parent="1" vertex="1">
          <mxGeometry x="610" y="192" width="160" height="80" as="geometry" />
        </mxCell>
        <mxCell id="6TijYfAXvn3jRtj2vqhA-27" value="CIM+GIS平台" style="rounded=1;whiteSpace=wrap;html=1;opacity=30;fillColor=#d5e8d4;gradientColor=#97d077;strokeColor=#82b366;" parent="1" vertex="1">
          <mxGeometry x="951" y="192" width="160" height="80" as="geometry" />
        </mxCell>
        <mxCell id="6TijYfAXvn3jRtj2vqhA-28" value="态势大屏" style="rounded=1;whiteSpace=wrap;html=1;opacity=30;fillColor=#fff2cc;strokeColor=#d6b656;gradientColor=#ffd966;" parent="1" vertex="1">
          <mxGeometry x="577" y="-146" width="230" height="30" as="geometry" />
        </mxCell>
        <mxCell id="6TijYfAXvn3jRtj2vqhA-29" value="用&lt;br&gt;户&lt;br&gt;端" style="rounded=1;whiteSpace=wrap;html=1;fillColor=#f8cecc;strokeColor=#b85450;opacity=30;gradientColor=#ea6b66;" parent="1" vertex="1">
          <mxGeometry x="197" y="-233" width="43" height="75" as="geometry" />
        </mxCell>
        <mxCell id="6TijYfAXvn3jRtj2vqhA-30" value="" style="rounded=0;whiteSpace=wrap;html=1;glass=0;opacity=30;fillColor=default;strokeColor=default;dashed=1;" parent="1" vertex="1">
          <mxGeometry x="254" y="-230" width="872" height="72" as="geometry" />
        </mxCell>
        <mxCell id="6TijYfAXvn3jRtj2vqhA-32" value="WEB端" style="rounded=1;whiteSpace=wrap;html=1;opacity=30;fillColor=#fff2cc;strokeColor=#d6b656;gradientColor=#ffd966;" parent="1" vertex="1">
          <mxGeometry x="316" y="-219" width="120" height="50" as="geometry" />
        </mxCell>
        <mxCell id="6TijYfAXvn3jRtj2vqhA-34" value="移动端" style="rounded=1;whiteSpace=wrap;html=1;opacity=30;fillColor=#fff2cc;strokeColor=#d6b656;gradientColor=#ffd966;" parent="1" vertex="1">
          <mxGeometry x="622" y="-219" width="120" height="50" as="geometry" />
        </mxCell>
        <mxCell id="6TijYfAXvn3jRtj2vqhA-35" value="大屏" style="rounded=1;whiteSpace=wrap;html=1;opacity=30;fillColor=#fff2cc;strokeColor=#d6b656;gradientColor=#ffd966;" parent="1" vertex="1">
          <mxGeometry x="927" y="-219" width="120" height="50" as="geometry" />
        </mxCell>
        <mxCell id="Pg3nfauNyvNF7lVv-B0n-32" value="" style="group" parent="1" vertex="1" connectable="0">
          <mxGeometry x="282" y="-103.5" width="276" height="188" as="geometry" />
        </mxCell>
        <mxCell id="6TijYfAXvn3jRtj2vqhA-31" value="低空感知应用" style="rounded=0;whiteSpace=wrap;html=1;opacity=30;verticalAlign=bottom;dashed=1;dashPattern=8 8;" parent="Pg3nfauNyvNF7lVv-B0n-32" vertex="1">
          <mxGeometry width="276" height="188" as="geometry" />
        </mxCell>
        <mxCell id="6TijYfAXvn3jRtj2vqhA-22" value="低&lt;br&gt;空&lt;br&gt;空&lt;br&gt;域&lt;br&gt;管&lt;br&gt;理&lt;br&gt;平&lt;br&gt;台" style="rounded=1;whiteSpace=wrap;html=1;opacity=30;fillColor=#fff2cc;strokeColor=#d6b656;gradientColor=#ffd966;" parent="Pg3nfauNyvNF7lVv-B0n-32" vertex="1">
          <mxGeometry x="47" y="11" width="30" height="150" as="geometry" />
        </mxCell>
        <mxCell id="6TijYfAXvn3jRtj2vqhA-23" value="低&lt;br&gt;空&lt;br&gt;航&lt;br&gt;线&lt;br&gt;管&lt;br&gt;理&lt;br&gt;平&lt;br&gt;台" style="rounded=1;whiteSpace=wrap;html=1;opacity=30;fillColor=#fff2cc;strokeColor=#d6b656;gradientColor=#ffd966;" parent="Pg3nfauNyvNF7lVv-B0n-32" vertex="1">
          <mxGeometry x="85" y="11" width="30" height="150" as="geometry" />
        </mxCell>
        <mxCell id="6TijYfAXvn3jRtj2vqhA-24" value="无&lt;br&gt;人&lt;br&gt;机&lt;br&gt;反&lt;br&gt;制&lt;br&gt;系&lt;br&gt;统" style="rounded=1;whiteSpace=wrap;html=1;opacity=30;fillColor=#fff2cc;strokeColor=#d6b656;gradientColor=#ffd966;" parent="Pg3nfauNyvNF7lVv-B0n-32" vertex="1">
          <mxGeometry x="123" y="11" width="30" height="150" as="geometry" />
        </mxCell>
        <mxCell id="6TijYfAXvn3jRtj2vqhA-36" value="低&lt;br style=&quot;border-color: var(--border-color);&quot;&gt;空&lt;br&gt;无&lt;br&gt;人&lt;br&gt;机&lt;br&gt;预&lt;br&gt;警&lt;br&gt;平&lt;br&gt;台" style="rounded=1;whiteSpace=wrap;html=1;opacity=30;fillColor=#fff2cc;strokeColor=#d6b656;gradientColor=#ffd966;" parent="Pg3nfauNyvNF7lVv-B0n-32" vertex="1">
          <mxGeometry x="161" y="11" width="30" height="150" as="geometry" />
        </mxCell>
        <mxCell id="6TijYfAXvn3jRtj2vqhA-38" value="低&lt;br&gt;空&lt;br&gt;无&lt;br&gt;人&lt;br&gt;机&lt;br&gt;共&lt;br&gt;享&lt;br&gt;平&lt;br&gt;台" style="rounded=1;whiteSpace=wrap;html=1;opacity=30;fillColor=#d5e8d4;strokeColor=#82b366;gradientColor=#97d077;" parent="Pg3nfauNyvNF7lVv-B0n-32" vertex="1">
          <mxGeometry x="9" y="11" width="30" height="150" as="geometry" />
        </mxCell>
        <mxCell id="Pg3nfauNyvNF7lVv-B0n-30" value="低&lt;br&gt;空&lt;br&gt;工&lt;br&gt;单&lt;br&gt;调&lt;br&gt;度&lt;br&gt;平&lt;br&gt;台" style="rounded=1;whiteSpace=wrap;html=1;opacity=30;fillColor=#fff2cc;strokeColor=#d6b656;gradientColor=#ffd966;" parent="Pg3nfauNyvNF7lVv-B0n-32" vertex="1">
          <mxGeometry x="199" y="11" width="30" height="150" as="geometry" />
        </mxCell>
        <mxCell id="Pg3nfauNyvNF7lVv-B0n-31" value="低&lt;br&gt;空&lt;br&gt;实&lt;br&gt;战&lt;br&gt;指&lt;br&gt;挥&lt;br&gt;平&lt;br&gt;台" style="rounded=1;whiteSpace=wrap;html=1;opacity=30;fillColor=#fff2cc;strokeColor=#d6b656;gradientColor=#ffd966;" parent="Pg3nfauNyvNF7lVv-B0n-32" vertex="1">
          <mxGeometry x="237" y="11" width="30" height="150" as="geometry" />
        </mxCell>
        <mxCell id="Pg3nfauNyvNF7lVv-B0n-50" value="" style="group" parent="1" vertex="1" connectable="0">
          <mxGeometry x="566" y="-105.5" width="540" height="190" as="geometry" />
        </mxCell>
        <mxCell id="6TijYfAXvn3jRtj2vqhA-37" value="低空感知应用场景" style="rounded=0;whiteSpace=wrap;html=1;opacity=30;verticalAlign=bottom;dashed=1;dashPattern=8 8;" parent="Pg3nfauNyvNF7lVv-B0n-50" vertex="1">
          <mxGeometry width="540" height="190" as="geometry" />
        </mxCell>
        <mxCell id="6TijYfAXvn3jRtj2vqhA-39" value="交&lt;br&gt;通&lt;br&gt;管&lt;br&gt;理" style="rounded=1;whiteSpace=wrap;html=1;opacity=30;fillColor=#fff2cc;strokeColor=#d6b656;gradientColor=#ffd966;" parent="Pg3nfauNyvNF7lVv-B0n-50" vertex="1">
          <mxGeometry x="50" y="11.5" width="30" height="150" as="geometry" />
        </mxCell>
        <mxCell id="6TijYfAXvn3jRtj2vqhA-40" value="环&lt;br&gt;境&lt;br&gt;水&lt;br&gt;务" style="rounded=1;whiteSpace=wrap;html=1;opacity=30;fillColor=#fff2cc;strokeColor=#d6b656;gradientColor=#ffd966;" parent="Pg3nfauNyvNF7lVv-B0n-50" vertex="1">
          <mxGeometry x="88" y="11.5" width="30" height="150" as="geometry" />
        </mxCell>
        <mxCell id="6TijYfAXvn3jRtj2vqhA-41" value="城&lt;br&gt;市&lt;br&gt;管&lt;br&gt;理" style="rounded=1;whiteSpace=wrap;html=1;opacity=30;fillColor=#fff2cc;strokeColor=#d6b656;gradientColor=#ffd966;" parent="Pg3nfauNyvNF7lVv-B0n-50" vertex="1">
          <mxGeometry x="126" y="11.5" width="30" height="150" as="geometry" />
        </mxCell>
        <mxCell id="6TijYfAXvn3jRtj2vqhA-42" value="市&lt;br&gt;场&lt;br&gt;监&lt;br&gt;督&lt;br&gt;管&lt;br&gt;理&lt;br&gt;局" style="rounded=1;whiteSpace=wrap;html=1;opacity=30;fillColor=#fff2cc;strokeColor=#d6b656;gradientColor=#ffd966;" parent="Pg3nfauNyvNF7lVv-B0n-50" vertex="1">
          <mxGeometry x="164" y="11.5" width="30" height="150" as="geometry" />
        </mxCell>
        <mxCell id="6TijYfAXvn3jRtj2vqhA-43" value="公&lt;br&gt;共&lt;br&gt;安&lt;br&gt;全" style="rounded=1;whiteSpace=wrap;html=1;opacity=30;fillColor=#fff2cc;strokeColor=#d6b656;gradientColor=#ffd966;" parent="Pg3nfauNyvNF7lVv-B0n-50" vertex="1">
          <mxGeometry x="12" y="11.5" width="30" height="150" as="geometry" />
        </mxCell>
        <mxCell id="6TijYfAXvn3jRtj2vqhA-44" value="应&lt;br&gt;急&lt;br&gt;管&lt;br&gt;理" style="rounded=1;whiteSpace=wrap;html=1;opacity=30;fillColor=#fff2cc;strokeColor=#d6b656;gradientColor=#ffd966;" parent="Pg3nfauNyvNF7lVv-B0n-50" vertex="1">
          <mxGeometry x="240" y="11.5" width="30" height="150" as="geometry" />
        </mxCell>
        <mxCell id="6TijYfAXvn3jRtj2vqhA-45" value="社&lt;br&gt;会&lt;br&gt;事&lt;br&gt;务" style="rounded=1;whiteSpace=wrap;html=1;opacity=30;fillColor=#fff2cc;strokeColor=#d6b656;gradientColor=#ffd966;" parent="Pg3nfauNyvNF7lVv-B0n-50" vertex="1">
          <mxGeometry x="278" y="11.5" width="30" height="150" as="geometry" />
        </mxCell>
        <mxCell id="6TijYfAXvn3jRtj2vqhA-46" value="卫&lt;br&gt;生&lt;br&gt;局" style="rounded=1;whiteSpace=wrap;html=1;opacity=30;fillColor=#fff2cc;strokeColor=#d6b656;gradientColor=#ffd966;" parent="Pg3nfauNyvNF7lVv-B0n-50" vertex="1">
          <mxGeometry x="316" y="11.5" width="30" height="150" as="geometry" />
        </mxCell>
        <mxCell id="6TijYfAXvn3jRtj2vqhA-47" value="政&lt;br&gt;府&lt;br&gt;园&lt;br&gt;区" style="rounded=1;whiteSpace=wrap;html=1;opacity=30;fillColor=#fff2cc;strokeColor=#d6b656;gradientColor=#ffd966;" parent="Pg3nfauNyvNF7lVv-B0n-50" vertex="1">
          <mxGeometry x="464" y="11.5" width="30" height="150" as="geometry" />
        </mxCell>
        <mxCell id="6TijYfAXvn3jRtj2vqhA-48" value="规&lt;br&gt;划&lt;br&gt;测&lt;br&gt;绘" style="rounded=1;whiteSpace=wrap;html=1;opacity=30;fillColor=#fff2cc;strokeColor=#d6b656;gradientColor=#ffd966;" parent="Pg3nfauNyvNF7lVv-B0n-50" vertex="1">
          <mxGeometry x="202" y="11.5" width="30" height="150" as="geometry" />
        </mxCell>
        <mxCell id="6TijYfAXvn3jRtj2vqhA-49" value="街&lt;br&gt;道&lt;br&gt;办" style="rounded=1;whiteSpace=wrap;html=1;opacity=30;fillColor=#fff2cc;strokeColor=#d6b656;gradientColor=#ffd966;" parent="Pg3nfauNyvNF7lVv-B0n-50" vertex="1">
          <mxGeometry x="501" y="11.5" width="30" height="150" as="geometry" />
        </mxCell>
        <mxCell id="6TijYfAXvn3jRtj2vqhA-50" value="" style="endArrow=none;dashed=1;html=1;dashPattern=1 3;strokeWidth=2;rounded=1;fillColor=#d5e8d4;strokeColor=#82b366;fontSize=12;opacity=30;gradientColor=#97d077;" parent="Pg3nfauNyvNF7lVv-B0n-50" edge="1">
          <mxGeometry width="50" height="50" relative="1" as="geometry">
            <mxPoint x="394" y="86" as="sourcePoint" />
            <mxPoint x="453" y="86" as="targetPoint" />
          </mxGeometry>
        </mxCell>
        <mxCell id="Pg3nfauNyvNF7lVv-B0n-33" value="政&lt;br&gt;法&lt;br&gt;委" style="rounded=1;whiteSpace=wrap;html=1;opacity=30;fillColor=#fff2cc;strokeColor=#d6b656;gradientColor=#ffd966;" parent="Pg3nfauNyvNF7lVv-B0n-50" vertex="1">
          <mxGeometry x="353" y="11.5" width="30" height="150" as="geometry" />
        </mxCell>
        <mxCell id="Pg3nfauNyvNF7lVv-B0n-6" value="飞行设备" style="rounded=0;whiteSpace=wrap;html=1;opacity=30;verticalAlign=top;dashed=1;dashPattern=8 8;" parent="1" vertex="1">
          <mxGeometry x="267" y="462.5" width="218" height="110" as="geometry" />
        </mxCell>
        <mxCell id="Pg3nfauNyvNF7lVv-B0n-7" value="无人机" style="rounded=1;whiteSpace=wrap;html=1;opacity=30;fillColor=#d5e8d4;strokeColor=#82b366;gradientColor=#97d077;" parent="1" vertex="1">
          <mxGeometry x="280" y="489.5" width="90" height="30" as="geometry" />
        </mxCell>
        <mxCell id="Pg3nfauNyvNF7lVv-B0n-8" value="无人机机库" style="rounded=1;whiteSpace=wrap;html=1;opacity=30;fillColor=#d5e8d4;strokeColor=#82b366;gradientColor=#97d077;" parent="1" vertex="1">
          <mxGeometry x="280" y="525.5" width="90" height="30" as="geometry" />
        </mxCell>
        <mxCell id="Pg3nfauNyvNF7lVv-B0n-9" value="无人机指挥车" style="rounded=1;whiteSpace=wrap;html=1;opacity=30;fillColor=#fff2cc;strokeColor=#d6b656;gradientColor=#ffd966;" parent="1" vertex="1">
          <mxGeometry x="381" y="489.5" width="90" height="30" as="geometry" />
        </mxCell>
        <mxCell id="Pg3nfauNyvNF7lVv-B0n-10" value="无人机反制" style="rounded=1;whiteSpace=wrap;html=1;opacity=30;fillColor=#fff2cc;strokeColor=#d6b656;gradientColor=#ffd966;" parent="1" vertex="1">
          <mxGeometry x="381" y="524.5" width="90" height="31" as="geometry" />
        </mxCell>
        <mxCell id="Pg3nfauNyvNF7lVv-B0n-11" value="无人机挂载设备" style="rounded=0;whiteSpace=wrap;html=1;opacity=30;verticalAlign=top;dashed=1;dashPattern=8 8;" parent="1" vertex="1">
          <mxGeometry x="498" y="462.5" width="616" height="110" as="geometry" />
        </mxCell>
        <mxCell id="Pg3nfauNyvNF7lVv-B0n-12" value="四光云台相机" style="rounded=1;whiteSpace=wrap;html=1;opacity=30;fillColor=#d5e8d4;strokeColor=#82b366;gradientColor=#97d077;" parent="1" vertex="1">
          <mxGeometry x="511" y="489.5" width="90" height="30" as="geometry" />
        </mxCell>
        <mxCell id="Pg3nfauNyvNF7lVv-B0n-13" value="气体探测" style="rounded=1;whiteSpace=wrap;html=1;opacity=30;fillColor=#d5e8d4;strokeColor=#82b366;gradientColor=#97d077;" parent="1" vertex="1">
          <mxGeometry x="611" y="489.5" width="90" height="30" as="geometry" />
        </mxCell>
        <mxCell id="Pg3nfauNyvNF7lVv-B0n-17" value="探照灯" style="rounded=1;whiteSpace=wrap;html=1;opacity=30;fillColor=#d5e8d4;strokeColor=#82b366;gradientColor=#97d077;" parent="1" vertex="1">
          <mxGeometry x="711" y="489.5" width="90" height="30" as="geometry" />
        </mxCell>
        <mxCell id="Pg3nfauNyvNF7lVv-B0n-18" value="喊话器" style="rounded=1;whiteSpace=wrap;html=1;opacity=30;fillColor=#d5e8d4;strokeColor=#82b366;gradientColor=#97d077;" parent="1" vertex="1">
          <mxGeometry x="811" y="489.5" width="90" height="30" as="geometry" />
        </mxCell>
        <mxCell id="Pg3nfauNyvNF7lVv-B0n-19" value="降落伞" style="rounded=1;whiteSpace=wrap;html=1;opacity=30;fillColor=#d5e8d4;strokeColor=#82b366;gradientColor=#97d077;" parent="1" vertex="1">
          <mxGeometry x="911" y="489.5" width="90" height="30" as="geometry" />
        </mxCell>
        <mxCell id="Pg3nfauNyvNF7lVv-B0n-20" value="多挂载" style="rounded=1;whiteSpace=wrap;html=1;opacity=30;fillColor=#d5e8d4;strokeColor=#82b366;gradientColor=#97d077;" parent="1" vertex="1">
          <mxGeometry x="1011" y="489.5" width="90" height="30" as="geometry" />
        </mxCell>
        <mxCell id="Pg3nfauNyvNF7lVv-B0n-21" value="双光云台相机" style="rounded=1;whiteSpace=wrap;html=1;opacity=30;fillColor=#fff2cc;strokeColor=#d6b656;gradientColor=#ffd966;" parent="1" vertex="1">
          <mxGeometry x="509" y="529.5" width="90" height="31" as="geometry" />
        </mxCell>
        <mxCell id="Pg3nfauNyvNF7lVv-B0n-22" value="激光雷达" style="rounded=1;whiteSpace=wrap;html=1;opacity=30;fillColor=#fff2cc;strokeColor=#d6b656;gradientColor=#ffd966;" parent="1" vertex="1">
          <mxGeometry x="609" y="529.5" width="90" height="31" as="geometry" />
        </mxCell>
        <mxCell id="Pg3nfauNyvNF7lVv-B0n-24" value="正射航测相机" style="rounded=1;whiteSpace=wrap;html=1;opacity=30;fillColor=#fff2cc;strokeColor=#d6b656;gradientColor=#ffd966;" parent="1" vertex="1">
          <mxGeometry x="709" y="529.5" width="90" height="31" as="geometry" />
        </mxCell>
        <mxCell id="Pg3nfauNyvNF7lVv-B0n-25" value="水环境监测" style="rounded=1;whiteSpace=wrap;html=1;opacity=30;fillColor=#fff2cc;strokeColor=#d6b656;gradientColor=#ffd966;" parent="1" vertex="1">
          <mxGeometry x="810" y="529.5" width="90" height="31" as="geometry" />
        </mxCell>
        <mxCell id="Pg3nfauNyvNF7lVv-B0n-26" value="......." style="rounded=1;whiteSpace=wrap;html=1;opacity=30;fillColor=#fff2cc;strokeColor=#d6b656;gradientColor=#ffd966;" parent="1" vertex="1">
          <mxGeometry x="910" y="529.5" width="90" height="31" as="geometry" />
        </mxCell>
        <mxCell id="Pg3nfauNyvNF7lVv-B0n-51" value="颜色说明" style="rounded=0;whiteSpace=wrap;html=1;dashed=1;dashPattern=8 8;opacity=30;verticalAlign=top;movable=1;resizable=1;rotatable=1;deletable=1;editable=1;locked=0;connectable=1;gradientColor=none;fontStyle=1" parent="1" vertex="1">
          <mxGeometry x="1159" y="-230" width="74.00000000000001" height="806" as="geometry" />
        </mxCell>
        <mxCell id="Pg3nfauNyvNF7lVv-B0n-1" value="本&lt;br&gt;期&lt;br&gt;新&lt;br&gt;增" style="rounded=1;whiteSpace=wrap;html=1;opacity=30;fillColor=#fff2cc;strokeColor=#d6b656;gradientColor=#ffd966;container=0;" parent="1" vertex="1">
          <mxGeometry x="1171.9839342188488" y="-166.8053097345133" width="52.235294117647065" height="178.31858407079645" as="geometry" />
        </mxCell>
        <mxCell id="Pg3nfauNyvNF7lVv-B0n-3" value="一&lt;br&gt;期&lt;br&gt;建&lt;br&gt;设" style="rounded=1;whiteSpace=wrap;html=1;opacity=30;fillColor=#dae8fc;strokeColor=#6c8ebf;" parent="1" vertex="1">
          <mxGeometry x="1171.9839342188488" y="261.1592920353982" width="52.235294117647065" height="178.31858407079645" as="geometry" />
        </mxCell>
        <mxCell id="Pg3nfauNyvNF7lVv-B0n-5" value="本&lt;br&gt;期&lt;br&gt;优&lt;br&gt;化&lt;br&gt;/&lt;br&gt;扩&lt;br&gt;建" style="rounded=1;whiteSpace=wrap;html=1;opacity=30;fillColor=#d5e8d4;strokeColor=#82b366;gradientColor=#97d077;" parent="1" vertex="1">
          <mxGeometry x="1171.9839342188488" y="47.17699115044246" width="52.235294117647065" height="178.31858407079645" as="geometry" />
        </mxCell>
        <mxCell id="FMSlj5QjOEeANjuQov4L-9" value="售后维保系统" style="rounded=1;whiteSpace=wrap;html=1;opacity=30;fillColor=#fff2cc;strokeColor=#d6b656;gradientColor=#ffd966;" parent="1" vertex="1">
          <mxGeometry x="713" y="91" width="394" height="30" as="geometry" />
        </mxCell>
        <mxCell id="FMSlj5QjOEeANjuQov4L-10" value="低空服务门户网站" style="rounded=1;whiteSpace=wrap;html=1;opacity=30;fillColor=#fff2cc;strokeColor=#d6b656;gradientColor=#ffd966;" parent="1" vertex="1">
          <mxGeometry x="876" y="-145" width="230" height="30" as="geometry" />
        </mxCell>
      </root>
    </mxGraphModel>
  </diagram>
  <diagram id="rGdtCvx8TSAjL7rWskbk" name="对外">
    <mxGraphModel dx="1834" dy="1222" grid="0" gridSize="10" guides="1" tooltips="1" connect="1" arrows="1" fold="1" page="0" pageScale="1" pageWidth="827" pageHeight="1169" math="0" shadow="0">
      <root>
        <mxCell id="0" />
        <mxCell id="1" parent="0" />
        <mxCell id="g3BLJ_HQt4Q9HQXXysAs-1" value="" style="rounded=0;whiteSpace=wrap;html=1;verticalAlign=middle;opacity=30;glass=0;dashed=1;" vertex="1" parent="1">
          <mxGeometry x="-52" y="288" width="691" height="153" as="geometry" />
        </mxCell>
        <mxCell id="g3BLJ_HQt4Q9HQXXysAs-77" value="低空业务中台" style="rounded=0;whiteSpace=wrap;html=1;opacity=30;fillColor=#fff2cc;gradientColor=#ffd966;strokeColor=#d6b656;verticalAlign=bottom;" vertex="1" parent="1">
          <mxGeometry x="308" y="291" width="319" height="144" as="geometry" />
        </mxCell>
        <mxCell id="g3BLJ_HQt4Q9HQXXysAs-75" value="通用能力" style="rounded=0;whiteSpace=wrap;html=1;verticalAlign=bottom;opacity=30;glass=0;dashed=1;" vertex="1" parent="1">
          <mxGeometry x="641.5" y="288" width="179.5" height="153" as="geometry" />
        </mxCell>
        <mxCell id="g3BLJ_HQt4Q9HQXXysAs-2" value="感&lt;br&gt;知&lt;br&gt;设&lt;br&gt;备" style="rounded=1;whiteSpace=wrap;html=1;opacity=30;fillColor=#f8cecc;gradientColor=#ea6b66;strokeColor=#b85450;" vertex="1" parent="1">
          <mxGeometry x="-110" y="597" width="43" height="122" as="geometry" />
        </mxCell>
        <mxCell id="g3BLJ_HQt4Q9HQXXysAs-3" value="" style="rounded=0;whiteSpace=wrap;html=1;glass=0;opacity=30;dashed=1;" vertex="1" parent="1">
          <mxGeometry x="-52" y="597" width="872" height="119" as="geometry" />
        </mxCell>
        <mxCell id="g3BLJ_HQt4Q9HQXXysAs-4" value="驱&lt;br&gt;动&lt;br&gt;层" style="rounded=1;whiteSpace=wrap;html=1;opacity=30;fillColor=#f8cecc;gradientColor=#ea6b66;strokeColor=#b85450;" vertex="1" parent="1">
          <mxGeometry x="-110" y="457.5" width="43" height="122" as="geometry" />
        </mxCell>
        <mxCell id="g3BLJ_HQt4Q9HQXXysAs-5" value="&lt;b&gt;IOT&lt;/b&gt;" style="rounded=0;whiteSpace=wrap;html=1;verticalAlign=bottom;opacity=30;glass=0;dashed=1;fillColor=#fff2cc;strokeColor=#d6b656;gradientColor=#ffd966;" vertex="1" parent="1">
          <mxGeometry x="-52" y="459" width="869" height="119" as="geometry" />
        </mxCell>
        <mxCell id="g3BLJ_HQt4Q9HQXXysAs-6" value="平&lt;br&gt;台&lt;br&gt;层" style="rounded=1;whiteSpace=wrap;html=1;opacity=30;fillColor=#f8cecc;gradientColor=#ea6b66;strokeColor=#b85450;" vertex="1" parent="1">
          <mxGeometry x="-110" y="286" width="43" height="154" as="geometry" />
        </mxCell>
        <mxCell id="g3BLJ_HQt4Q9HQXXysAs-7" value="设备接入" style="rounded=1;whiteSpace=wrap;html=1;opacity=30;fillColor=#fff2cc;gradientColor=#ffd966;strokeColor=#d6b656;" vertex="1" parent="1">
          <mxGeometry x="-25" y="489" width="120" height="60" as="geometry" />
        </mxCell>
        <mxCell id="g3BLJ_HQt4Q9HQXXysAs-8" value="协议适配转换" style="rounded=1;whiteSpace=wrap;html=1;opacity=30;fillColor=#fff2cc;gradientColor=#ffd966;strokeColor=#d6b656;" vertex="1" parent="1">
          <mxGeometry x="532" y="489" width="120" height="60" as="geometry" />
        </mxCell>
        <mxCell id="g3BLJ_HQt4Q9HQXXysAs-9" value="视频接入" style="rounded=1;whiteSpace=wrap;html=1;opacity=30;fillColor=#fff2cc;gradientColor=#ffd966;strokeColor=#d6b656;" vertex="1" parent="1">
          <mxGeometry x="114" y="489" width="120" height="60" as="geometry" />
        </mxCell>
        <mxCell id="g3BLJ_HQt4Q9HQXXysAs-10" value="各类传感数据接入" style="rounded=1;whiteSpace=wrap;html=1;opacity=30;fillColor=#fff2cc;gradientColor=#ffd966;strokeColor=#d6b656;" vertex="1" parent="1">
          <mxGeometry x="393" y="489" width="120" height="60" as="geometry" />
        </mxCell>
        <mxCell id="g3BLJ_HQt4Q9HQXXysAs-11" value="图片接入" style="rounded=1;whiteSpace=wrap;html=1;opacity=30;fillColor=#fff2cc;gradientColor=#ffd966;strokeColor=#d6b656;" vertex="1" parent="1">
          <mxGeometry x="253" y="489" width="120" height="60" as="geometry" />
        </mxCell>
        <mxCell id="g3BLJ_HQt4Q9HQXXysAs-12" value="设备管理" style="rounded=1;whiteSpace=wrap;html=1;opacity=30;fillColor=#fff2cc;gradientColor=#ffd966;strokeColor=#d6b656;" vertex="1" parent="1">
          <mxGeometry x="671" y="488.5" width="120" height="60" as="geometry" />
        </mxCell>
        <mxCell id="g3BLJ_HQt4Q9HQXXysAs-14" value="无人机飞行管理平台" style="rounded=0;whiteSpace=wrap;html=1;opacity=30;fillColor=#d5e8d4;gradientColor=#97d077;strokeColor=#82b366;" vertex="1" parent="1">
          <mxGeometry x="325" y="302" width="160" height="47" as="geometry" />
        </mxCell>
        <mxCell id="g3BLJ_HQt4Q9HQXXysAs-15" value="应&lt;br&gt;用&lt;br&gt;层" style="rounded=1;whiteSpace=wrap;html=1;fillColor=#f8cecc;strokeColor=#b85450;opacity=30;gradientColor=#ea6b66;" vertex="1" parent="1">
          <mxGeometry x="-110" y="-10" width="43" height="279" as="geometry" />
        </mxCell>
        <mxCell id="g3BLJ_HQt4Q9HQXXysAs-16" value="" style="rounded=0;whiteSpace=wrap;html=1;verticalAlign=middle;opacity=30;fillColor=default;strokeColor=default;glass=0;dashed=1;" vertex="1" parent="1">
          <mxGeometry x="-52" y="-11" width="870" height="280" as="geometry" />
        </mxCell>
        <mxCell id="g3BLJ_HQt4Q9HQXXysAs-17" value="统一门户" style="rounded=1;whiteSpace=wrap;html=1;opacity=30;fillColor=#fff2cc;strokeColor=#d6b656;gradientColor=#ffd966;" vertex="1" parent="1">
          <mxGeometry x="-27" y="-7" width="230" height="30" as="geometry" />
        </mxCell>
        <mxCell id="g3BLJ_HQt4Q9HQXXysAs-18" value="运维管理系统" style="rounded=1;whiteSpace=wrap;html=1;opacity=30;fillColor=#fff2cc;strokeColor=#d6b656;gradientColor=#ffd966;" vertex="1" parent="1">
          <mxGeometry x="-26" y="231" width="394" height="30" as="geometry" />
        </mxCell>
        <mxCell id="g3BLJ_HQt4Q9HQXXysAs-19" value="低空AI中台" style="rounded=0;whiteSpace=wrap;html=1;opacity=30;fillColor=#fff2cc;gradientColor=#ffd966;strokeColor=#d6b656;verticalAlign=bottom;" vertex="1" parent="1">
          <mxGeometry x="-48" y="291" width="170" height="148" as="geometry" />
        </mxCell>
        <mxCell id="g3BLJ_HQt4Q9HQXXysAs-20" value="低空数据中台" style="rounded=0;whiteSpace=wrap;html=1;opacity=30;fillColor=#fff2cc;gradientColor=#ffd966;strokeColor=#d6b656;verticalAlign=bottom;" vertex="1" parent="1">
          <mxGeometry x="130" y="291" width="170" height="148" as="geometry" />
        </mxCell>
        <mxCell id="g3BLJ_HQt4Q9HQXXysAs-21" value="CIM平台" style="rounded=0;whiteSpace=wrap;html=1;opacity=30;fillColor=#d5e8d4;gradientColor=#97d077;strokeColor=#82b366;" vertex="1" parent="1">
          <mxGeometry x="651" y="302" width="160" height="47" as="geometry" />
        </mxCell>
        <mxCell id="g3BLJ_HQt4Q9HQXXysAs-22" value="态势大屏" style="rounded=1;whiteSpace=wrap;html=1;opacity=30;fillColor=#fff2cc;strokeColor=#d6b656;gradientColor=#ffd966;" vertex="1" parent="1">
          <mxGeometry x="270" y="-7" width="230" height="30" as="geometry" />
        </mxCell>
        <mxCell id="g3BLJ_HQt4Q9HQXXysAs-23" value="用&lt;br&gt;户&lt;br&gt;端" style="rounded=1;whiteSpace=wrap;html=1;fillColor=#f8cecc;strokeColor=#b85450;opacity=30;gradientColor=#ea6b66;" vertex="1" parent="1">
          <mxGeometry x="-110" y="-94" width="43" height="75" as="geometry" />
        </mxCell>
        <mxCell id="g3BLJ_HQt4Q9HQXXysAs-24" value="" style="rounded=0;whiteSpace=wrap;html=1;glass=0;opacity=30;fillColor=default;strokeColor=default;dashed=1;" vertex="1" parent="1">
          <mxGeometry x="-53" y="-91" width="872" height="72" as="geometry" />
        </mxCell>
        <mxCell id="g3BLJ_HQt4Q9HQXXysAs-25" value="WEB端" style="rounded=1;whiteSpace=wrap;html=1;opacity=30;fillColor=#fff2cc;strokeColor=#d6b656;gradientColor=#ffd966;" vertex="1" parent="1">
          <mxGeometry x="9" y="-80" width="120" height="50" as="geometry" />
        </mxCell>
        <mxCell id="g3BLJ_HQt4Q9HQXXysAs-26" value="移动端" style="rounded=1;whiteSpace=wrap;html=1;opacity=30;fillColor=#fff2cc;strokeColor=#d6b656;gradientColor=#ffd966;" vertex="1" parent="1">
          <mxGeometry x="315" y="-80" width="120" height="50" as="geometry" />
        </mxCell>
        <mxCell id="g3BLJ_HQt4Q9HQXXysAs-27" value="大屏" style="rounded=1;whiteSpace=wrap;html=1;opacity=30;fillColor=#fff2cc;strokeColor=#d6b656;gradientColor=#ffd966;" vertex="1" parent="1">
          <mxGeometry x="620" y="-80" width="120" height="50" as="geometry" />
        </mxCell>
        <mxCell id="g3BLJ_HQt4Q9HQXXysAs-28" value="" style="group" vertex="1" connectable="0" parent="1">
          <mxGeometry x="-25" y="35.5" width="276" height="188" as="geometry" />
        </mxCell>
        <mxCell id="g3BLJ_HQt4Q9HQXXysAs-29" value="低空感知应用" style="rounded=0;whiteSpace=wrap;html=1;opacity=30;verticalAlign=bottom;dashed=1;dashPattern=8 8;" vertex="1" parent="g3BLJ_HQt4Q9HQXXysAs-28">
          <mxGeometry width="276" height="188" as="geometry" />
        </mxCell>
        <mxCell id="g3BLJ_HQt4Q9HQXXysAs-30" value="低&lt;br&gt;空&lt;br&gt;空&lt;br&gt;域&lt;br&gt;管&lt;br&gt;理&lt;br&gt;平&lt;br&gt;台" style="rounded=1;whiteSpace=wrap;html=1;opacity=30;fillColor=#fff2cc;strokeColor=#d6b656;gradientColor=#ffd966;" vertex="1" parent="g3BLJ_HQt4Q9HQXXysAs-28">
          <mxGeometry x="47" y="11" width="30" height="150" as="geometry" />
        </mxCell>
        <mxCell id="g3BLJ_HQt4Q9HQXXysAs-31" value="低&lt;br&gt;空&lt;br&gt;航&lt;br&gt;线&lt;br&gt;管&lt;br&gt;理&lt;br&gt;平&lt;br&gt;台" style="rounded=1;whiteSpace=wrap;html=1;opacity=30;fillColor=#fff2cc;strokeColor=#d6b656;gradientColor=#ffd966;" vertex="1" parent="g3BLJ_HQt4Q9HQXXysAs-28">
          <mxGeometry x="85" y="11" width="30" height="150" as="geometry" />
        </mxCell>
        <mxCell id="g3BLJ_HQt4Q9HQXXysAs-32" value="无&lt;br&gt;人&lt;br&gt;机&lt;br&gt;反&lt;br&gt;制&lt;br&gt;系&lt;br&gt;统" style="rounded=1;whiteSpace=wrap;html=1;opacity=30;fillColor=#fff2cc;strokeColor=#d6b656;gradientColor=#ffd966;" vertex="1" parent="g3BLJ_HQt4Q9HQXXysAs-28">
          <mxGeometry x="123" y="11" width="30" height="150" as="geometry" />
        </mxCell>
        <mxCell id="g3BLJ_HQt4Q9HQXXysAs-33" value="低&lt;br style=&quot;border-color: var(--border-color);&quot;&gt;空&lt;br&gt;无&lt;br&gt;人&lt;br&gt;机&lt;br&gt;预&lt;br&gt;警&lt;br&gt;平&lt;br&gt;台" style="rounded=1;whiteSpace=wrap;html=1;opacity=30;fillColor=#fff2cc;strokeColor=#d6b656;gradientColor=#ffd966;" vertex="1" parent="g3BLJ_HQt4Q9HQXXysAs-28">
          <mxGeometry x="161" y="11" width="30" height="150" as="geometry" />
        </mxCell>
        <mxCell id="g3BLJ_HQt4Q9HQXXysAs-34" value="低&lt;br&gt;空&lt;br&gt;无&lt;br&gt;人&lt;br&gt;机&lt;br&gt;共&lt;br&gt;享&lt;br&gt;平&lt;br&gt;台" style="rounded=1;whiteSpace=wrap;html=1;opacity=30;fillColor=#d5e8d4;strokeColor=#82b366;gradientColor=#97d077;" vertex="1" parent="g3BLJ_HQt4Q9HQXXysAs-28">
          <mxGeometry x="9" y="11" width="30" height="150" as="geometry" />
        </mxCell>
        <mxCell id="g3BLJ_HQt4Q9HQXXysAs-35" value="低&lt;br&gt;空&lt;br&gt;工&lt;br&gt;单&lt;br&gt;调&lt;br&gt;度&lt;br&gt;平&lt;br&gt;台" style="rounded=1;whiteSpace=wrap;html=1;opacity=30;fillColor=#fff2cc;strokeColor=#d6b656;gradientColor=#ffd966;" vertex="1" parent="g3BLJ_HQt4Q9HQXXysAs-28">
          <mxGeometry x="199" y="11" width="30" height="150" as="geometry" />
        </mxCell>
        <mxCell id="g3BLJ_HQt4Q9HQXXysAs-36" value="低&lt;br&gt;空&lt;br&gt;实&lt;br&gt;战&lt;br&gt;指&lt;br&gt;挥&lt;br&gt;平&lt;br&gt;台" style="rounded=1;whiteSpace=wrap;html=1;opacity=30;fillColor=#fff2cc;strokeColor=#d6b656;gradientColor=#ffd966;" vertex="1" parent="g3BLJ_HQt4Q9HQXXysAs-28">
          <mxGeometry x="237" y="11" width="30" height="150" as="geometry" />
        </mxCell>
        <mxCell id="g3BLJ_HQt4Q9HQXXysAs-37" value="" style="group" vertex="1" connectable="0" parent="1">
          <mxGeometry x="259" y="33.5" width="540" height="190" as="geometry" />
        </mxCell>
        <mxCell id="g3BLJ_HQt4Q9HQXXysAs-38" value="低空感知应用场景" style="rounded=0;whiteSpace=wrap;html=1;opacity=30;verticalAlign=bottom;dashed=1;dashPattern=8 8;" vertex="1" parent="g3BLJ_HQt4Q9HQXXysAs-37">
          <mxGeometry width="540" height="190" as="geometry" />
        </mxCell>
        <mxCell id="g3BLJ_HQt4Q9HQXXysAs-39" value="交&lt;br&gt;通&lt;br&gt;管&lt;br&gt;理" style="rounded=1;whiteSpace=wrap;html=1;opacity=30;fillColor=#fff2cc;strokeColor=#d6b656;gradientColor=#ffd966;" vertex="1" parent="g3BLJ_HQt4Q9HQXXysAs-37">
          <mxGeometry x="50" y="11.5" width="30" height="150" as="geometry" />
        </mxCell>
        <mxCell id="g3BLJ_HQt4Q9HQXXysAs-40" value="环&lt;br&gt;境&lt;br&gt;水&lt;br&gt;务" style="rounded=1;whiteSpace=wrap;html=1;opacity=30;fillColor=#fff2cc;strokeColor=#d6b656;gradientColor=#ffd966;" vertex="1" parent="g3BLJ_HQt4Q9HQXXysAs-37">
          <mxGeometry x="88" y="11.5" width="30" height="150" as="geometry" />
        </mxCell>
        <mxCell id="g3BLJ_HQt4Q9HQXXysAs-41" value="城&lt;br&gt;市&lt;br&gt;管&lt;br&gt;理" style="rounded=1;whiteSpace=wrap;html=1;opacity=30;fillColor=#fff2cc;strokeColor=#d6b656;gradientColor=#ffd966;" vertex="1" parent="g3BLJ_HQt4Q9HQXXysAs-37">
          <mxGeometry x="126" y="11.5" width="30" height="150" as="geometry" />
        </mxCell>
        <mxCell id="g3BLJ_HQt4Q9HQXXysAs-42" value="市&lt;br&gt;场&lt;br&gt;监&lt;br&gt;督&lt;br&gt;管&lt;br&gt;理&lt;br&gt;局" style="rounded=1;whiteSpace=wrap;html=1;opacity=30;fillColor=#fff2cc;strokeColor=#d6b656;gradientColor=#ffd966;" vertex="1" parent="g3BLJ_HQt4Q9HQXXysAs-37">
          <mxGeometry x="164" y="11.5" width="30" height="150" as="geometry" />
        </mxCell>
        <mxCell id="g3BLJ_HQt4Q9HQXXysAs-43" value="公&lt;br&gt;共&lt;br&gt;安&lt;br&gt;全" style="rounded=1;whiteSpace=wrap;html=1;opacity=30;fillColor=#fff2cc;strokeColor=#d6b656;gradientColor=#ffd966;" vertex="1" parent="g3BLJ_HQt4Q9HQXXysAs-37">
          <mxGeometry x="12" y="11.5" width="30" height="150" as="geometry" />
        </mxCell>
        <mxCell id="g3BLJ_HQt4Q9HQXXysAs-44" value="应&lt;br&gt;急&lt;br&gt;管&lt;br&gt;理" style="rounded=1;whiteSpace=wrap;html=1;opacity=30;fillColor=#fff2cc;strokeColor=#d6b656;gradientColor=#ffd966;" vertex="1" parent="g3BLJ_HQt4Q9HQXXysAs-37">
          <mxGeometry x="240" y="11.5" width="30" height="150" as="geometry" />
        </mxCell>
        <mxCell id="g3BLJ_HQt4Q9HQXXysAs-45" value="社&lt;br&gt;会&lt;br&gt;事&lt;br&gt;务" style="rounded=1;whiteSpace=wrap;html=1;opacity=30;fillColor=#fff2cc;strokeColor=#d6b656;gradientColor=#ffd966;" vertex="1" parent="g3BLJ_HQt4Q9HQXXysAs-37">
          <mxGeometry x="278" y="11.5" width="30" height="150" as="geometry" />
        </mxCell>
        <mxCell id="g3BLJ_HQt4Q9HQXXysAs-46" value="卫&lt;br&gt;生&lt;br&gt;局" style="rounded=1;whiteSpace=wrap;html=1;opacity=30;fillColor=#fff2cc;strokeColor=#d6b656;gradientColor=#ffd966;" vertex="1" parent="g3BLJ_HQt4Q9HQXXysAs-37">
          <mxGeometry x="316" y="11.5" width="30" height="150" as="geometry" />
        </mxCell>
        <mxCell id="g3BLJ_HQt4Q9HQXXysAs-47" value="政&lt;br&gt;府&lt;br&gt;园&lt;br&gt;区" style="rounded=1;whiteSpace=wrap;html=1;opacity=30;fillColor=#fff2cc;strokeColor=#d6b656;gradientColor=#ffd966;" vertex="1" parent="g3BLJ_HQt4Q9HQXXysAs-37">
          <mxGeometry x="464" y="11.5" width="30" height="150" as="geometry" />
        </mxCell>
        <mxCell id="g3BLJ_HQt4Q9HQXXysAs-48" value="规&lt;br&gt;划&lt;br&gt;测&lt;br&gt;绘" style="rounded=1;whiteSpace=wrap;html=1;opacity=30;fillColor=#fff2cc;strokeColor=#d6b656;gradientColor=#ffd966;" vertex="1" parent="g3BLJ_HQt4Q9HQXXysAs-37">
          <mxGeometry x="202" y="11.5" width="30" height="150" as="geometry" />
        </mxCell>
        <mxCell id="g3BLJ_HQt4Q9HQXXysAs-49" value="街&lt;br&gt;道&lt;br&gt;办" style="rounded=1;whiteSpace=wrap;html=1;opacity=30;fillColor=#fff2cc;strokeColor=#d6b656;gradientColor=#ffd966;" vertex="1" parent="g3BLJ_HQt4Q9HQXXysAs-37">
          <mxGeometry x="501" y="11.5" width="30" height="150" as="geometry" />
        </mxCell>
        <mxCell id="g3BLJ_HQt4Q9HQXXysAs-50" value="" style="endArrow=none;dashed=1;html=1;dashPattern=1 3;strokeWidth=2;rounded=1;fillColor=#d5e8d4;strokeColor=#82b366;fontSize=12;opacity=30;gradientColor=#97d077;" edge="1" parent="g3BLJ_HQt4Q9HQXXysAs-37">
          <mxGeometry width="50" height="50" relative="1" as="geometry">
            <mxPoint x="394" y="86" as="sourcePoint" />
            <mxPoint x="453" y="86" as="targetPoint" />
          </mxGeometry>
        </mxCell>
        <mxCell id="g3BLJ_HQt4Q9HQXXysAs-51" value="政&lt;br&gt;法&lt;br&gt;委" style="rounded=1;whiteSpace=wrap;html=1;opacity=30;fillColor=#fff2cc;strokeColor=#d6b656;gradientColor=#ffd966;" vertex="1" parent="g3BLJ_HQt4Q9HQXXysAs-37">
          <mxGeometry x="353" y="11.5" width="30" height="150" as="geometry" />
        </mxCell>
        <mxCell id="g3BLJ_HQt4Q9HQXXysAs-52" value="飞行设备" style="rounded=0;whiteSpace=wrap;html=1;opacity=30;verticalAlign=top;dashed=1;dashPattern=8 8;" vertex="1" parent="1">
          <mxGeometry x="-40" y="601.5" width="218" height="110" as="geometry" />
        </mxCell>
        <mxCell id="g3BLJ_HQt4Q9HQXXysAs-53" value="无人机" style="rounded=1;whiteSpace=wrap;html=1;opacity=30;fillColor=#d5e8d4;strokeColor=#82b366;gradientColor=#97d077;" vertex="1" parent="1">
          <mxGeometry x="-27" y="628.5" width="90" height="30" as="geometry" />
        </mxCell>
        <mxCell id="g3BLJ_HQt4Q9HQXXysAs-54" value="无人机机库" style="rounded=1;whiteSpace=wrap;html=1;opacity=30;fillColor=#d5e8d4;strokeColor=#82b366;gradientColor=#97d077;" vertex="1" parent="1">
          <mxGeometry x="-27" y="664.5" width="90" height="30" as="geometry" />
        </mxCell>
        <mxCell id="g3BLJ_HQt4Q9HQXXysAs-55" value="无人机指挥车" style="rounded=1;whiteSpace=wrap;html=1;opacity=30;fillColor=#fff2cc;strokeColor=#d6b656;gradientColor=#ffd966;" vertex="1" parent="1">
          <mxGeometry x="74" y="628.5" width="90" height="30" as="geometry" />
        </mxCell>
        <mxCell id="g3BLJ_HQt4Q9HQXXysAs-56" value="无人机反制" style="rounded=1;whiteSpace=wrap;html=1;opacity=30;fillColor=#fff2cc;strokeColor=#d6b656;gradientColor=#ffd966;" vertex="1" parent="1">
          <mxGeometry x="74" y="663.5" width="90" height="31" as="geometry" />
        </mxCell>
        <mxCell id="g3BLJ_HQt4Q9HQXXysAs-57" value="无人机挂载设备" style="rounded=0;whiteSpace=wrap;html=1;opacity=30;verticalAlign=top;dashed=1;dashPattern=8 8;" vertex="1" parent="1">
          <mxGeometry x="191" y="601.5" width="616" height="110" as="geometry" />
        </mxCell>
        <mxCell id="g3BLJ_HQt4Q9HQXXysAs-58" value="四光云台相机" style="rounded=1;whiteSpace=wrap;html=1;opacity=30;fillColor=#d5e8d4;strokeColor=#82b366;gradientColor=#97d077;" vertex="1" parent="1">
          <mxGeometry x="204" y="628.5" width="90" height="30" as="geometry" />
        </mxCell>
        <mxCell id="g3BLJ_HQt4Q9HQXXysAs-59" value="气体探测" style="rounded=1;whiteSpace=wrap;html=1;opacity=30;fillColor=#d5e8d4;strokeColor=#82b366;gradientColor=#97d077;" vertex="1" parent="1">
          <mxGeometry x="304" y="628.5" width="90" height="30" as="geometry" />
        </mxCell>
        <mxCell id="g3BLJ_HQt4Q9HQXXysAs-60" value="探照灯" style="rounded=1;whiteSpace=wrap;html=1;opacity=30;fillColor=#d5e8d4;strokeColor=#82b366;gradientColor=#97d077;" vertex="1" parent="1">
          <mxGeometry x="404" y="628.5" width="90" height="30" as="geometry" />
        </mxCell>
        <mxCell id="g3BLJ_HQt4Q9HQXXysAs-61" value="喊话器" style="rounded=1;whiteSpace=wrap;html=1;opacity=30;fillColor=#d5e8d4;strokeColor=#82b366;gradientColor=#97d077;" vertex="1" parent="1">
          <mxGeometry x="504" y="628.5" width="90" height="30" as="geometry" />
        </mxCell>
        <mxCell id="g3BLJ_HQt4Q9HQXXysAs-62" value="降落伞" style="rounded=1;whiteSpace=wrap;html=1;opacity=30;fillColor=#d5e8d4;strokeColor=#82b366;gradientColor=#97d077;" vertex="1" parent="1">
          <mxGeometry x="604" y="628.5" width="90" height="30" as="geometry" />
        </mxCell>
        <mxCell id="g3BLJ_HQt4Q9HQXXysAs-63" value="多挂载" style="rounded=1;whiteSpace=wrap;html=1;opacity=30;fillColor=#d5e8d4;strokeColor=#82b366;gradientColor=#97d077;" vertex="1" parent="1">
          <mxGeometry x="704" y="628.5" width="90" height="30" as="geometry" />
        </mxCell>
        <mxCell id="g3BLJ_HQt4Q9HQXXysAs-64" value="双光云台相机" style="rounded=1;whiteSpace=wrap;html=1;opacity=30;fillColor=#fff2cc;strokeColor=#d6b656;gradientColor=#ffd966;" vertex="1" parent="1">
          <mxGeometry x="202" y="668.5" width="90" height="31" as="geometry" />
        </mxCell>
        <mxCell id="g3BLJ_HQt4Q9HQXXysAs-65" value="激光雷达" style="rounded=1;whiteSpace=wrap;html=1;opacity=30;fillColor=#fff2cc;strokeColor=#d6b656;gradientColor=#ffd966;" vertex="1" parent="1">
          <mxGeometry x="302" y="668.5" width="90" height="31" as="geometry" />
        </mxCell>
        <mxCell id="g3BLJ_HQt4Q9HQXXysAs-66" value="正射航测相机" style="rounded=1;whiteSpace=wrap;html=1;opacity=30;fillColor=#fff2cc;strokeColor=#d6b656;gradientColor=#ffd966;" vertex="1" parent="1">
          <mxGeometry x="402" y="668.5" width="90" height="31" as="geometry" />
        </mxCell>
        <mxCell id="g3BLJ_HQt4Q9HQXXysAs-67" value="水环境监测" style="rounded=1;whiteSpace=wrap;html=1;opacity=30;fillColor=#fff2cc;strokeColor=#d6b656;gradientColor=#ffd966;" vertex="1" parent="1">
          <mxGeometry x="503" y="668.5" width="90" height="31" as="geometry" />
        </mxCell>
        <mxCell id="g3BLJ_HQt4Q9HQXXysAs-68" value="......." style="rounded=1;whiteSpace=wrap;html=1;opacity=30;fillColor=#fff2cc;strokeColor=#d6b656;gradientColor=#ffd966;" vertex="1" parent="1">
          <mxGeometry x="603" y="668.5" width="90" height="31" as="geometry" />
        </mxCell>
        <mxCell id="g3BLJ_HQt4Q9HQXXysAs-69" value="颜色说明" style="rounded=0;whiteSpace=wrap;html=1;dashed=1;dashPattern=8 8;opacity=30;verticalAlign=top;movable=1;resizable=1;rotatable=1;deletable=1;editable=1;locked=0;connectable=1;gradientColor=none;fontStyle=1" vertex="1" parent="1">
          <mxGeometry x="852" y="-91" width="74.00000000000001" height="806" as="geometry" />
        </mxCell>
        <mxCell id="g3BLJ_HQt4Q9HQXXysAs-70" value="本&lt;br&gt;期&lt;br&gt;新&lt;br&gt;增" style="rounded=1;whiteSpace=wrap;html=1;opacity=30;fillColor=#fff2cc;strokeColor=#d6b656;gradientColor=#ffd966;container=0;" vertex="1" parent="1">
          <mxGeometry x="864.9839342188488" y="-27.805309734513287" width="52.235294117647065" height="178.31858407079645" as="geometry" />
        </mxCell>
        <mxCell id="g3BLJ_HQt4Q9HQXXysAs-71" value="一&lt;br&gt;期&lt;br&gt;建&lt;br&gt;设" style="rounded=1;whiteSpace=wrap;html=1;opacity=30;fillColor=#dae8fc;strokeColor=#6c8ebf;" vertex="1" parent="1">
          <mxGeometry x="864.9839342188488" y="400.1592920353982" width="52.235294117647065" height="178.31858407079645" as="geometry" />
        </mxCell>
        <mxCell id="g3BLJ_HQt4Q9HQXXysAs-72" value="本&lt;br&gt;期&lt;br&gt;优&lt;br&gt;化&lt;br&gt;/&lt;br&gt;扩&lt;br&gt;建" style="rounded=1;whiteSpace=wrap;html=1;opacity=30;fillColor=#d5e8d4;strokeColor=#82b366;gradientColor=#97d077;" vertex="1" parent="1">
          <mxGeometry x="864.9839342188488" y="186.17699115044246" width="52.235294117647065" height="178.31858407079645" as="geometry" />
        </mxCell>
        <mxCell id="g3BLJ_HQt4Q9HQXXysAs-73" value="售后维保系统" style="rounded=1;whiteSpace=wrap;html=1;opacity=30;fillColor=#fff2cc;strokeColor=#d6b656;gradientColor=#ffd966;" vertex="1" parent="1">
          <mxGeometry x="406" y="230" width="394" height="30" as="geometry" />
        </mxCell>
        <mxCell id="g3BLJ_HQt4Q9HQXXysAs-74" value="低空服务门户网站" style="rounded=1;whiteSpace=wrap;html=1;opacity=30;fillColor=#fff2cc;strokeColor=#d6b656;gradientColor=#ffd966;" vertex="1" parent="1">
          <mxGeometry x="569" y="-6" width="230" height="30" as="geometry" />
        </mxCell>
        <mxCell id="g3BLJ_HQt4Q9HQXXysAs-76" value="GIS平台" style="rounded=0;whiteSpace=wrap;html=1;opacity=30;fillColor=#d5e8d4;gradientColor=#97d077;strokeColor=#82b366;" vertex="1" parent="1">
          <mxGeometry x="651" y="360" width="160" height="47" as="geometry" />
        </mxCell>
        <mxCell id="g3BLJ_HQt4Q9HQXXysAs-78" value="IoT平台" style="rounded=0;whiteSpace=wrap;html=1;opacity=30;fillColor=#fff2cc;gradientColor=#ffd966;strokeColor=#d6b656;" vertex="1" parent="1">
          <mxGeometry x="325" y="353.15999999999997" width="160" height="47" as="geometry" />
        </mxCell>
        <mxCell id="g3BLJ_HQt4Q9HQXXysAs-79" value="用户、组织、权限" style="rounded=0;whiteSpace=wrap;html=1;opacity=30;fillColor=#fff2cc;gradientColor=#ffd966;strokeColor=#d6b656;" vertex="1" parent="1">
          <mxGeometry x="492" y="302" width="129" height="99" as="geometry" />
        </mxCell>
        <mxCell id="g3BLJ_HQt4Q9HQXXysAs-81" style="edgeStyle=orthogonalEdgeStyle;rounded=0;orthogonalLoop=1;jettySize=auto;html=1;exitX=0.5;exitY=0;exitDx=0;exitDy=0;opacity=30;" edge="1" parent="1" source="g3BLJ_HQt4Q9HQXXysAs-80" target="g3BLJ_HQt4Q9HQXXysAs-78">
          <mxGeometry relative="1" as="geometry" />
        </mxCell>
        <mxCell id="g3BLJ_HQt4Q9HQXXysAs-80" value="" style="rounded=0;whiteSpace=wrap;html=1;verticalAlign=middle;opacity=30;glass=0;" vertex="1" parent="1">
          <mxGeometry x="-118" y="453" width="940" height="129" as="geometry" />
        </mxCell>
        <mxCell id="g3BLJ_HQt4Q9HQXXysAs-82" value="解析任务" style="rounded=0;whiteSpace=wrap;html=1;opacity=30;fillColor=#fff2cc;gradientColor=#ffd966;strokeColor=#d6b656;" vertex="1" parent="1">
          <mxGeometry x="-45" y="296" width="160" height="31" as="geometry" />
        </mxCell>
        <mxCell id="g3BLJ_HQt4Q9HQXXysAs-83" value="算力管理和调度" style="rounded=0;whiteSpace=wrap;html=1;opacity=30;fillColor=#fff2cc;gradientColor=#ffd966;strokeColor=#d6b656;" vertex="1" parent="1">
          <mxGeometry x="-45" y="331" width="160" height="31" as="geometry" />
        </mxCell>
        <mxCell id="g3BLJ_HQt4Q9HQXXysAs-84" value="模型管理和训练" style="rounded=0;whiteSpace=wrap;html=1;opacity=30;fillColor=#fff2cc;gradientColor=#ffd966;strokeColor=#d6b656;" vertex="1" parent="1">
          <mxGeometry x="-45" y="368" width="160" height="31" as="geometry" />
        </mxCell>
        <mxCell id="g3BLJ_HQt4Q9HQXXysAs-86" value="数据接入" style="rounded=0;whiteSpace=wrap;html=1;opacity=30;fillColor=#fff2cc;gradientColor=#ffd966;strokeColor=#d6b656;" vertex="1" parent="1">
          <mxGeometry x="134" y="297.16" width="160" height="31" as="geometry" />
        </mxCell>
        <mxCell id="g3BLJ_HQt4Q9HQXXysAs-87" value="数据处理" style="rounded=0;whiteSpace=wrap;html=1;opacity=30;fillColor=#fff2cc;gradientColor=#ffd966;strokeColor=#d6b656;" vertex="1" parent="1">
          <mxGeometry x="134" y="332.16" width="160" height="31" as="geometry" />
        </mxCell>
        <mxCell id="g3BLJ_HQt4Q9HQXXysAs-88" value="数据存储和数据服务.." style="rounded=0;whiteSpace=wrap;html=1;opacity=30;fillColor=#fff2cc;gradientColor=#ffd966;strokeColor=#d6b656;" vertex="1" parent="1">
          <mxGeometry x="134" y="369.16" width="160" height="31" as="geometry" />
        </mxCell>
      </root>
    </mxGraphModel>
  </diagram>
</mxfile>
